<svg width="455" height="68" viewBox="0 0 455 68" fill="none" xmlns="http://www.w3.org/2000/svg">
<mask id="mask0_6367_353" style="mask-type:alpha" maskUnits="userSpaceOnUse" x="1" y="1" width="453" height="160">
<path d="M5.64926 144.833L2.76699 141.388C2.16746 140.671 1 141.095 1 142.029V160C1 160.552 1.44772 161 2 161H453C453.552 161 454 160.552 454 160V33.3361C454 32.2694 452.553 31.9439 452.096 32.9078L444.829 48.2413C444.785 48.3333 444.728 48.4181 444.658 48.4928L427.113 67.4203C426.758 67.8033 426.168 67.8487 425.759 67.5245L409.676 54.7882C409.214 54.4222 408.537 54.5335 408.216 55.0282L391.475 80.8504C391.092 81.4412 390.235 81.4617 389.824 80.8899L372.563 56.8641C372.282 56.473 371.762 56.3377 371.326 56.5421L354.673 64.3499C354.5 64.4311 354.353 64.5602 354.251 64.722L336.47 92.9198C336.13 93.46 335.377 93.5468 334.922 93.0983L316.464 74.8901C316.341 74.7693 316.252 74.6191 316.205 74.4538L299.369 15.7202C299.311 15.5181 299.19 15.3393 299.025 15.2094L281.535 1.47033C281.181 1.19246 280.685 1.18497 280.323 1.45202L261.739 15.1634C261.526 15.3208 261.258 15.387 260.996 15.3476L245.12 12.9564C244.81 12.9096 244.495 13.0116 244.271 13.2317L226.271 30.9078C225.894 31.2783 225.294 31.291 224.901 30.937L195.45 4.37928C194.998 3.97144 194.289 4.05913 193.95 4.56491L161.243 53.3324C160.95 53.7681 160.371 53.9039 159.916 53.6434L134.07 38.8602C134.019 38.831 133.97 38.7974 133.925 38.7597L116.728 24.3937C116.474 24.1817 116.132 24.1089 115.814 24.1992L98.4206 29.1398C98.0041 29.2581 97.5587 29.0948 97.3172 28.7354L81.5435 5.25054C81.086 4.56944 80.0482 4.69871 79.7718 5.47123L61.0728 57.733C61.0161 57.8916 60.9202 58.0333 60.794 58.145L42.9949 73.899C42.8998 73.9832 42.8216 74.0847 42.7645 74.1982L7.30949 144.641C6.98616 145.283 6.11073 145.385 5.64926 144.833Z" fill="url(#paint0_linear_6367_353)"/>
</mask>
<g mask="url(#mask0_6367_353)">
<path d="M4.67303 143.666L4.53398 143.5C3.33493 142.067 1 142.915 1 144.783V159C1 160.105 1.89543 161 3 161H452C453.105 161 454 160.105 454 159V37.7807C454 35.6474 451.106 34.9963 450.193 36.9241L444.895 48.1024C444.807 48.2865 444.692 48.4561 444.554 48.6055L427.742 66.7419C427.032 67.5078 425.852 67.5985 425.034 66.9501L410.538 55.4707C409.613 54.7387 408.259 54.9612 407.618 55.9507L392.272 79.6215C391.506 80.8031 389.791 80.8441 388.969 79.7005L373.047 57.5386C372.485 56.7565 371.446 56.4859 370.574 56.8947L354.938 64.2256C354.592 64.388 354.299 64.6462 354.095 64.9697L337.133 91.8682C336.452 92.9486 334.947 93.1223 334.037 92.2253L316.65 75.0743C316.405 74.8328 316.227 74.5322 316.132 74.2016L299.458 16.0312C299.342 15.6269 299.101 15.2694 298.771 15.0095L282.134 1.94066C281.426 1.38492 280.435 1.36994 279.711 1.90405L262.072 14.9176C261.645 15.2324 261.111 15.3649 260.587 15.2859L245.614 13.0307C244.993 12.9371 244.363 13.1411 243.915 13.5814L226.943 30.2484C226.188 30.9894 224.987 31.0149 224.202 30.3067L196.307 5.15231C195.403 4.33663 193.986 4.51202 193.307 5.52358L161.761 52.559C161.177 53.4305 160.018 53.7021 159.107 53.1811L134.146 38.9041C134.044 38.8457 133.947 38.7784 133.857 38.703L117.134 24.7327C116.626 24.3086 115.942 24.1629 115.305 24.3437L99.1191 28.9413C98.286 29.178 97.3952 28.8515 96.9124 28.1326L82.6479 6.89483C81.7329 5.53262 79.6573 5.79117 79.1045 7.33621L61.1593 57.4913C61.0458 57.8085 60.854 58.0919 60.6018 58.3151L43.1389 73.7715C42.9487 73.9399 42.7922 74.143 42.678 74.37L7.99349 143.282C7.34683 144.567 5.59597 144.769 4.67303 143.666Z" fill="#40C374"/>
</g>
<path d="M1 142.137L4.65775 146.599C5.57952 147.724 7.35524 147.52 7.99834 146.216L42.6817 75.8804C42.7935 75.6537 42.9472 75.4503 43.1348 75.2809L60.6082 59.4952C60.8563 59.271 61.0443 58.9882 61.1549 58.6727L79.1023 7.47364C79.65 5.91126 81.7503 5.65283 82.6604 7.03584L96.9112 28.6922C97.3933 29.4249 98.2965 29.7579 99.1389 29.5137L115.288 24.8318C115.934 24.6445 116.631 24.7944 117.142 25.2308L133.857 39.4832C133.948 39.5601 134.044 39.6288 134.147 39.6885L159.086 54.2481C160.004 54.7843 161.182 54.508 161.766 53.6192L193.3 5.62825C193.977 4.59709 195.418 4.4194 196.326 5.25499L224.186 30.8986C224.976 31.6255 226.199 31.5994 226.957 30.8396L243.91 13.8463C244.361 13.3948 245 13.1852 245.63 13.2821L260.572 15.5792C261.105 15.6612 261.649 15.5244 262.079 15.2001L279.695 1.93497C280.425 1.38494 281.435 1.40028 282.149 1.97225L298.779 15.3058C299.104 15.5669 299.34 15.9235 299.453 16.3254L316.136 75.7308C316.229 76.0587 316.403 76.3577 316.643 76.5994L334.02 94.0953C334.931 95.0128 336.461 94.8373 337.14 93.7371L354.099 66.287C354.301 65.9609 354.592 65.6996 354.937 65.5341L370.553 58.0614C371.433 57.6399 372.49 57.9159 373.051 58.7143L388.958 81.3121C389.778 82.4769 391.518 82.4356 392.281 81.2332L407.612 57.0969C408.252 56.0885 409.628 55.8628 410.557 56.6137L425.016 68.3002C425.84 68.9665 427.041 68.874 427.754 68.0894L444.558 49.5861C444.694 49.4365 444.806 49.2671 444.891 49.0838L454 29.4685" stroke="#1CC760" stroke-width="2" stroke-linecap="round" stroke-linejoin="round"/>
<defs>
<linearGradient id="paint0_linear_6367_353" x1="227.5" y1="1" x2="227.5" y2="161" gradientUnits="userSpaceOnUse">
<stop stop-color="#1CC760" stop-opacity="0.12"/>
<stop offset="1" stop-color="#1CC760" stop-opacity="0"/>
</linearGradient>
</defs>
</svg>
